<?xml version="1.0" encoding="utf-8"?>
<svg version="1.1" xmlns:xlink="http://www.w3.org/1999/xlink" width="28px" height="26px" xmlns="http://www.w3.org/2000/svg">
  <g transform="matrix(1 0 0 1 -316 -140 )">
    <path d="M 17.171875 15.9453125  C 18.6470352564103 14.5755208333333  19.3846153846154 12.9270833333333  19.3846153846154 11  C 19.3846153846154 9.07291666666666  18.6470352564103 7.42447916666667  17.171875 6.0546875  C 15.6967147435897 4.68489583333333  13.9214743589744 4  11.8461538461538 4  C 9.77083333333333 4  7.99559294871795 4.68489583333333  6.52043269230769 6.0546875  C 5.04527243589744 7.42447916666667  4.30769230769231 9.07291666666666  4.30769230769231 11  C 4.30769230769231 12.9270833333333  5.04527243589744 14.5755208333333  6.52043269230769 15.9453125  C 7.99559294871795 17.3151041666667  9.77083333333333 18  11.8461538461538 18  C 13.9214743589744 18  15.6967147435897 17.3151041666667  17.171875 15.9453125  Z M 27.3774038461538 22.59375  C 27.7924679487179 22.9791666666667  28 23.4479166666667  28 24  C 28 24.5416666666667  27.786858974359 25.0104166666667  27.3605769230769 25.40625  C 26.9342948717949 25.8020833333333  26.4294871794872 26  25.8461538461538 26  C 25.2403846153846 26  24.7355769230769 25.8020833333333  24.3317307692308 25.40625  L 18.5600961538462 20.0625  C 16.5520833333333 21.3541666666667  14.3141025641026 22  11.8461538461538 22  C 10.2419871794872 22  8.70793269230769 21.7109375  7.24399038461538 21.1328125  C 5.78004807692308 20.5546875  4.51802884615385 19.7734375  3.45793269230769 18.7890625  C 2.39783653846154 17.8046875  1.55649038461539 16.6328125  0.933894230769231 15.2734375  C 0.311298076923077 13.9140625  0 12.4895833333333  0 11  C 0 9.51041666666666  0.311298076923077 8.0859375  0.933894230769231 6.7265625  C 1.55649038461539 5.3671875  2.39783653846154 4.1953125  3.45793269230769 3.2109375  C 4.51802884615385 2.2265625  5.78004807692308 1.4453125  7.24399038461538 0.867187500000001  C 8.70793269230769 0.289062499999999  10.2419871794872 0  11.8461538461538 0  C 13.4503205128205 0  14.984375 0.289062499999999  16.4483173076923 0.867187500000001  C 17.9122596153846 1.4453125  19.1742788461538 2.2265625  20.234375 3.2109375  C 21.2944711538462 4.1953125  22.1358173076923 5.3671875  22.7584134615385 6.7265625  C 23.3810096153846 8.0859375  23.6923076923077 9.51041666666666  23.6923076923077 11  C 23.6923076923077 13.2916666666667  22.9967948717949 15.3697916666667  21.6057692307692 17.234375  L 27.3774038461538 22.59375  Z " fill-rule="nonzero" fill="#000000" stroke="none" transform="matrix(1 0 0 1 316 140 )" />
  </g>
</svg>