<?xml version="1.0" encoding="utf-8"?>
<svg version="1.1" xmlns:xlink="http://www.w3.org/1999/xlink" width="30px" height="30px" xmlns="http://www.w3.org/2000/svg">
  <g transform="matrix(1 0 0 1 -54 -214 )">
    <path d="M 69 215  C 76.84 215  83 221.16  83 229  C 83 236.84  76.84 243  69 243  C 61.16 243  55 236.84  55 229  C 55 221.16  61.16 215  69 215  Z " fill-rule="nonzero" fill="#1abc9c" stroke="none" />
    <path d="M 69 215  C 76.84 215  83 221.16  83 229  C 83 236.84  76.84 243  69 243  C 61.16 243  55 236.84  55 229  C 55 221.16  61.16 215  69 215  Z " stroke-width="2" stroke="#1abc9c" fill="none" />
  </g>
</svg>