<?xml version="1.0" encoding="utf-8"?>
<svg version="1.1" xmlns:xlink="http://www.w3.org/1999/xlink" width="30px" height="30px" xmlns="http://www.w3.org/2000/svg">
  <g transform="matrix(1 0 0 1 -158 -214 )">
    <path d="M 173 215  C 180.84 215  187 221.16  187 229  C 187 236.84  180.84 243  173 243  C 165.16 243  159 236.84  159 229  C 159 221.16  165.16 215  173 215  Z " fill-rule="nonzero" fill="#ffffff" stroke="none" />
    <path d="M 173 215  C 180.84 215  187 221.16  187 229  C 187 236.84  180.84 243  173 243  C 165.16 243  159 236.84  159 229  C 159 221.16  165.16 215  173 215  Z " stroke-width="2" stroke="#e4e4e4" fill="none" />
  </g>
</svg>