<?xml version="1.0" encoding="utf-8"?>
<svg version="1.1" xmlns:xlink="http://www.w3.org/1999/xlink" width="98px" height="30px" xmlns="http://www.w3.org/2000/svg">
  <g transform="matrix(1 0 0 1 -284 -235 )">
    <path d="M 285 250  A 14 14 0 0 1 299 236 L 367 236  A 14 14 0 0 1 381 250 A 14 14 0 0 1 367 264 L 299 264  A 14 14 0 0 1 285 250 Z " fill-rule="nonzero" fill="#ffffff" stroke="none" fill-opacity="0" />
    <path d="M 284.5 250  A 14.5 14.5 0 0 1 299 235.5 L 367 235.5  A 14.5 14.5 0 0 1 381.5 250 A 14.5 14.5 0 0 1 367 264.5 L 299 264.5  A 14.5 14.5 0 0 1 284.5 250 Z " stroke-width="1" stroke="#1abc9c" fill="none" stroke-opacity="0.8" />
  </g>
</svg>